<svg width="18" height="18" viewBox="0 0 18 18" fill="none" xmlns="http://www.w3.org/2000/svg">
<path d="M11.626 10.5H11.0335L10.8235 10.2975C11.5585 9.4425 12.001 8.3325 12.001 7.125C12.001 4.4325 9.81848 2.25 7.12598 2.25C4.43348 2.25 2.25098 4.4325 2.25098 7.125C2.25098 9.8175 4.43348 12 7.12598 12C8.33348 12 9.44348 11.5575 10.2985 10.8225L10.501 11.0325V11.625L14.251 15.3675L15.3685 14.25L11.626 10.5ZM7.12598 10.5C5.25848 10.5 3.75098 8.9925 3.75098 7.125C3.75098 5.2575 5.25848 3.75 7.12598 3.75C8.99348 3.75 10.501 5.2575 10.501 7.125C10.501 8.9925 8.99348 10.5 7.12598 10.5Z" fill="#888888"/>
</svg>
